<svg width="14" height="14" viewBox="0 0 14 14" fill="none" xmlns="http://www.w3.org/2000/svg">
<path d="M3.05571 0.223902C2.50799 -0.078831 1.8649 -0.0718314 1.32068 0.228277L7.69907 6.11232L9.84182 3.96956L3.05571 0.223902Z" fill="white"/>
<path d="M0.682791 0.830242C0.52705 1.08485 0.437805 1.37621 0.437805 1.68507V12.3122C0.437805 12.6115 0.519176 12.8967 0.666167 13.1461L7.08043 6.73179L0.682791 0.830242Z" fill="white"/>
<path d="M12.6828 5.53749L10.6389 4.40968L8.34216 6.70555L11.1569 9.30153L12.6837 8.45895C13.2331 8.15447 13.5621 7.6085 13.5621 6.99778C13.5612 6.38707 13.2331 5.8411 12.6828 5.53749Z" fill="white"/>
<path d="M7.72357 7.325L1.29181 13.7568C1.57092 13.916 1.87715 14 2.18513 14C2.48262 14 2.78185 13.9247 3.05571 13.7734L10.3502 9.74773L7.72357 7.325Z" fill="white"/>
</svg>
