<svg width="13" height="16" viewBox="0 0 13 16" fill="none" xmlns="http://www.w3.org/2000/svg">
<path d="M12.6517 12.08C12.3057 12.846 12.1407 13.188 11.6947 13.865C11.0737 14.81 10.1987 15.988 9.11372 15.998C8.14972 16.007 7.90172 15.371 6.59372 15.378C5.28572 15.385 5.01172 16.009 4.04772 16C2.96272 15.99 2.13372 14.927 1.51172 13.981C-0.224276 11.337 -0.406276 8.235 0.664724 6.586C1.42572 5.413 2.62672 4.728 3.75672 4.728C4.90672 4.728 5.62872 5.358 6.57972 5.358C7.50172 5.358 8.06372 4.727 9.39372 4.727C10.3987 4.727 11.4637 5.274 12.2217 6.219C9.73672 7.582 10.1407 11.131 12.6517 12.08Z" fill="white"/>
<path d="M8.92976 2.699C9.47576 1.999 9.88976 1.01 9.73876 0C8.84776 0.061 7.80576 0.628 7.19676 1.367C6.64476 2.038 6.18876 3.033 6.36576 4C7.33876 4.03 8.34476 3.449 8.92976 2.699Z" fill="white"/>
</svg>
