<svg width="83" height="24" viewBox="0 0 83 24" fill="none" xmlns="http://www.w3.org/2000/svg">
<path d="M12 24C14.3734 24 16.6935 23.2962 18.6668 21.9776C20.6402 20.6591 22.1783 18.7849 23.0866 16.5922C23.9948 14.3995 24.2324 11.9867 23.7694 9.65892C23.3064 7.33114 22.1635 5.19295 20.4853 3.51472C18.8071 1.83649 16.6689 0.693599 14.3411 0.230576C12.0133 -0.232447 9.60051 0.0051934 7.4078 0.913445C5.21509 1.8217 3.34094 3.35977 2.02236 5.33316C0.703787 7.30655 -4.20793e-07 9.62662 -5.24537e-07 12L4.8 12C4.8 10.576 5.22227 9.18393 6.01342 7.99989C6.80457 6.81586 7.92905 5.89302 9.24468 5.34807C10.5603 4.80312 12.008 4.66053 13.4047 4.93835C14.8013 5.21616 16.0842 5.90189 17.0912 6.90883C18.0981 7.91577 18.7838 9.19869 19.0617 10.5953C19.3395 11.992 19.1969 13.4397 18.6519 14.7553C18.107 16.0709 17.1841 17.1954 16.0001 17.9866C14.8161 18.7777 13.424 19.2 12 19.2L12 24Z" fill="white"/>
<path d="M38.052 18.258C39.612 18.258 40.86 17.85 41.892 17.13C42.972 16.386 43.692 15.33 43.956 14.226H40.14C39.804 14.994 39.132 15.45 38.1 15.45C36.492 15.45 35.58 14.418 35.34 12.762H44.172C44.196 10.266 43.476 8.13 42.012 6.786C40.956 5.826 39.564 5.25 37.812 5.25C34.068 5.25 31.5 8.058 31.5 11.73C31.5 15.45 33.996 18.258 38.052 18.258ZM35.364 10.434C35.628 8.97 36.396 8.034 37.884 8.034C39.156 8.034 40.068 8.97 40.212 10.434H35.364Z" fill="white"/>
<path d="M49.1057 18.21C50.9537 18.21 52.0337 17.562 52.7537 16.53H52.8017C52.8977 17.154 53.0177 17.634 53.2097 17.898H57.0017V17.73C56.6657 17.514 56.5697 16.962 56.5697 15.978V9.786C56.5697 8.25 56.0657 7.05 55.0097 6.282C54.1217 5.61 52.8737 5.274 51.0257 5.274C47.3057 5.274 45.5537 7.218 45.4577 9.498H49.0577C49.1777 8.466 49.8017 7.914 51.0497 7.914C52.2257 7.914 52.7297 8.442 52.7297 9.234C52.7297 10.074 51.9137 10.314 49.6097 10.602C47.0657 10.938 44.9057 11.754 44.9057 14.466C44.9057 16.89 46.6577 18.21 49.1057 18.21ZM50.3537 15.714C49.3937 15.714 48.6737 15.33 48.6737 14.346C48.6737 13.41 49.2977 13.026 50.8097 12.69C51.6017 12.498 52.3217 12.306 52.8257 12.042V13.506C52.8257 14.826 51.8177 15.714 50.3537 15.714Z" fill="white"/>
<path d="M63.6981 18.282C66.9141 18.282 69.2901 16.89 69.2901 14.202C69.2901 11.058 66.7461 10.506 64.5861 10.146C63.0261 9.858 61.6341 9.738 61.6341 8.874C61.6341 8.106 62.3781 7.746 63.3381 7.746C64.4181 7.746 65.1621 8.082 65.3061 9.186H68.9061C68.7141 6.762 66.8421 5.25 63.3621 5.25C60.4581 5.25 58.0581 6.594 58.0581 9.186C58.0581 12.066 60.3381 12.642 62.4741 13.002C64.1061 13.29 65.5941 13.41 65.5941 14.514C65.5941 15.306 64.8501 15.738 63.6741 15.738C62.3781 15.738 61.5621 15.138 61.4181 13.914H57.7221C57.8421 16.626 60.0981 18.282 63.6981 18.282Z" fill="white"/>
<path d="M70.6162 21.954H73.1602C75.6322 21.954 76.8083 20.946 77.7923 18.066L82.0403 5.61H78.1283L76.5202 10.842C76.1362 12.042 75.8003 13.674 75.8003 13.674H75.7523C75.7523 13.674 75.3683 12.042 74.9842 10.842L73.3283 5.61H69.2002L72.8242 15.066C73.3283 16.362 73.5682 17.082 73.5682 17.61C73.5682 18.45 73.1122 18.906 71.9603 18.906H70.6162V21.954Z" fill="white"/>
</svg>
